<svg xmlns="http://www.w3.org/2000/svg" xmlns:xlink="http://www.w3.org/1999/xlink" version="1.1" x="0px" y="0px" width="100px" height="100px" viewBox="5.0 -10.0 100.0 135.0" enable-background="new 0 0 100 100" xml:space="preserve">

<g id="Your_Icon">
	<g>
		<path d="M3.351,34.246L32.029,4.42l10.324,10.324l-3.441,2.294c0,0,3.441,11.471-10.324,10.324l-3.441,22.943    C25.146,50.306,9.086,46.864,3.351,34.246z"/>
		<path d="M27.053,53.061l-2.387-0.511c-0.702-0.151-17.26-3.84-23.404-17.355l-0.644-1.417L31.997,1.144l13.957,13.958l-4.499,3    c0.259,1.948,0.286,5.184-1.667,7.81c-1.873,2.518-4.98,3.805-9.236,3.827L27.053,53.061z M6.128,34.667    c4.259,7.711,12.946,11.357,17.135,12.723l3.374-22.492l2.141,0.104C29.357,25.05,29.915,25,30.437,25c0,0,0.001,0,0.001,0    c2.785,0,4.692-0.592,5.668-1.904c1.534-2.061,0.617-5.402,0.608-5.436l-0.488-1.607l2.525-1.674l-6.691-6.686L6.128,34.667z"/>
	</g>
	<g>
		<path d="M71.031,62.924c0,0,13.766,17.207,13.766,22.942c0,5.736,17.207-3.441,12.618-6.883L44.647,22.774    c0,8.03-8.03,9.177-8.03,9.177S48.088,37.687,71.031,62.924z"/>
		<path d="M87.026,88.856C87.026,88.856,87.026,88.856,87.026,88.856c-2.489-0.001-3.377-1.545-3.377-2.99    c0-4.375-9.755-17.527-13.515-22.226c-22.49-24.736-33.918-30.607-34.031-30.663l-3.284-1.642l3.385-0.52    C36.489,30.773,43,29.688,43,22.774v-2.898l54.939,58.256c1.045,0.832,1.525,2.035,1.098,3.317    C97.868,84.955,90.932,88.856,87.026,88.856z M39.456,32.312c4.433,2.88,15.183,10.875,32.424,29.84    C73.361,64,85.944,79.901,85.944,85.866c0,0.326,0,0.695,1.082,0.696l0,0c3.146,0,9.194-3.547,9.959-5.838    c0.129-0.386,0.068-0.578-0.258-0.823l-0.149-0.133l-51.07-54.401C44.636,29.112,41.921,31.256,39.456,32.312z"/>
	</g>
</g></svg>
