<svg xmlns="http://www.w3.org/2000/svg" xmlns:xlink="http://www.w3.org/1999/xlink" version="1.1" x="0px" y="0px" width="100px" height="100px" viewBox="5.0 -10.0 100.0 135.0" enable-background="new 0 0 100 100" xml:space="preserve">
<g id="Captions">
</g>
<g id="Your_Icon">
	<path d="M88.558,54.495C82.684,38.022,55.614,32.624,39.14,38.498c-10.713,3.819-18.088,12.818-20.324,23.176   c-5.341,0.305-2.008-24.399,9.313-33.604c14.528,6.738,22.745-5.029,22.745-5.029c-5.023-6.4-12.091-6.259-17.997-4.449   c6.584-11.4-1.444-18.571-1.444-18.571c-10.784,3.711-9.941,15.95-8.437,23.035C11.132,33.027,3.672,47.838,5.604,65.542   c0.802,7.354,4.306,13.813,14.66,14.239c6.177,15.933,23.952,24.146,40.149,18.371C76.886,92.279,94.432,70.97,88.558,54.495z"/>
</g></svg>
